<svg xmlns="http://www.w3.org/2000/svg" xmlns:svg="http://www.w3.org/2000/svg" id="svg8" width="25" height="25" version="1.1" viewBox="0 0 6.615 6.615"><metadata id="metadata5"/><g id="layer1" transform="translate(-176.30007,-237.98867)"><path style="fill:#ffac1a;fill-opacity:1;stroke:#000;stroke-width:.26499999;stroke-miterlimit:4;stroke-dasharray:none;stroke-opacity:1;paint-order:normal" id="path826" d="m 178.50423,244.09394 c -0.22576,-0.1819 -0.48867,-0.55411 -0.58424,-0.82713 -0.1647,-0.4705 -0.1395,-0.47395 0.48288,-0.0661 0.83287,0.54572 1.57602,0.54572 2.40888,0 0.62239,-0.4078 0.64759,-0.40435 0.48289,0.0661 -0.25118,0.71753 -0.89286,1.15786 -1.68733,1.15786 -0.38093,0 -0.87732,-0.14883 -1.10308,-0.33073 z m 0.0448,-1.23894 c 0,-0.13571 -0.22361,-0.31772 -0.49691,-0.40447 -0.69217,-0.21968 -1.26949,-2.31756 -0.87564,-3.18196 0.66905,-1.46841 4.19272,-1.46841 4.86177,0 0.39384,0.8644 -0.18348,2.96228 -0.87565,3.18196 -0.2733,0.0867 -0.4969,0.26876 -0.4969,0.40447 0,0.13571 -0.47625,0.24675 -1.05834,0.24675 -0.58208,0 -1.05833,-0.11104 -1.05833,-0.24675 z m 1.32292,-0.547 c 0,-0.14552 -0.11907,-0.26458 -0.26459,-0.26458 -0.14552,0 -0.26458,0.11906 -0.26458,0.26458 0,0.14552 0.11906,0.26459 0.26458,0.26459 0.14552,0 0.26459,-0.11907 0.26459,-0.26459 z m -0.8405,-1.1464 c 0.0495,-0.25521 -0.0833,-0.4411 -0.31511,-0.4411 -0.49153,0 -0.78819,0.43131 -0.55555,0.80772 0.23932,0.38723 0.7676,0.16479 0.87066,-0.36662 z m 2.03112,0.0696 c 0,-0.20416 -0.20836,-0.41132 -0.46302,-0.46037 -0.45607,-0.0878 -0.64461,0.47359 -0.28112,0.83709 0.27734,0.27734 0.74414,0.041 0.74414,-0.37672 z"/></g></svg>